HIERARCHY
ROOT Hips
{
	OFFSET 0.000000 0.000000 0.000000 
	CHANNELS 6 Xposition Yposition Zposition Zrotation Yrotation Xrotation
	JOINT LeftUpLeg
	{
		OFFSET 1.363060 -1.794630 0.839290 
		CHANNELS 3 Zrotation Yrotation Xrotation
		JOINT LeftLeg
		{
			OFFSET 2.448110 -6.726130 0.000000 
			CHANNELS 3 Zrotation Yrotation Xrotation
			JOINT LeftFoot
			{
				OFFSET 2.562200 -7.039590 0.000000 
				CHANNELS 3 Zrotation Yrotation Xrotation
				JOINT LeftToeBase
				{
					OFFSET 0.157640 -0.433110 2.322550 
					CHANNELS 3 Zrotation Yrotation Xrotation
					End Site
					{
						OFFSET 0.000000 0.000000 0.000000 
					}
				}
			}
		}
	}
	JOINT RightUpLeg
	{
		OFFSET -1.305520 -1.794630 0.839290 
		CHANNELS 3 Zrotation Yrotation Xrotation
		JOINT RightLeg
		{
			OFFSET -2.542530 -6.985550 0.000000 
			CHANNELS 3 Zrotation Yrotation Xrotation
			JOINT RightFoot
			{
				OFFSET -2.568260 -7.056230 0.000000 
				CHANNELS 3 Zrotation Yrotation Xrotation
				JOINT RightToeBase
				{
					OFFSET -0.164730 -0.452590 2.363150 
					CHANNELS 3 Zrotation Yrotation Xrotation
					End Site
					{
						OFFSET 0.000000 0.000000 0.000000 
					}
				}
			}
		}
	}
	JOINT Spine
	{
		OFFSET 0.028270 2.035590 -0.193380 
		CHANNELS 3 Zrotation Yrotation Xrotation
		JOINT Spine1
		{
			OFFSET 0.056720 2.048850 -0.042750 
			CHANNELS 3 Zrotation Yrotation Xrotation
			JOINT Neck1
			{
				OFFSET -0.054170 1.746240 0.172020 
				CHANNELS 3 Zrotation Yrotation Xrotation
				JOINT Head
				{
					OFFSET 0.104070 1.761360 -0.123970 
					CHANNELS 3 Zrotation Yrotation Xrotation
					End Site
					{
						OFFSET 0.000000 0.000000 0.000000 
					}
				}
			}
			JOINT LeftArm
			{
				OFFSET 3.362410 1.200890 -0.311210 
				CHANNELS 3 Zrotation Yrotation Xrotation
				JOINT LeftForeArm
				{
					OFFSET 4.983000 -0.000000 -0.000000 
					CHANNELS 3 Zrotation Yrotation Xrotation
					JOINT LeftHand
					{
						OFFSET 3.483560 -0.000000 -0.000000 
						CHANNELS 3 Zrotation Yrotation Xrotation
						JOINT LeftHandIndex1
						{
							OFFSET 0.715260 -0.000000 -0.000000 
							CHANNELS 3 Zrotation Yrotation Xrotation
							End Site
							{
								OFFSET 0.000000 0.000000 0.000000 
							}
						}
					}
				}
			}
			JOINT RightArm
			{
				OFFSET -3.136600 1.374050 -0.404650 
				CHANNELS 3 Zrotation Yrotation Xrotation
				JOINT RightForeArm
				{
					OFFSET -5.241900 -0.000000 -0.000000 
					CHANNELS 3 Zrotation Yrotation Xrotation
					JOINT RightHand
					{
						OFFSET -3.444170 -0.000000 -0.000000 
						CHANNELS 3 Zrotation Yrotation Xrotation
						JOINT RightHandIndex1
						{
							OFFSET -0.622530 -0.000000 -0.000000 
							CHANNELS 3 Zrotation Yrotation Xrotation
							End Site
							{
								OFFSET 0.000000 0.000000 0.000000 
							}
						}
					}
				}
			}
		}
	}
}
MOTION
Frames: 6
Frame Time: 0.041667
6.600577 17.575621 6.551914 -168.082155 -16.209002 -178.326370 3.765033 -21.878539 -27.737414 6.786072 17.244336 51.722603 1.926315 0.882175 9.068074 3.232600 -11.062400 -32.490700 45.436664 -1.646782 -9.594082 -1.759818 -8.254083 25.400471 -2.194481 10.111726 -2.102664 -0.089600 1.930700 -5.314300 2.371776 0.236249 -5.638918 3.082814 0.149199 -13.240153 10.848727 -2.359166 6.044534 5.035500 -1.155900 3.041200 -64.851345 12.152742 29.185272 128.291576 -45.910753 -96.344978 1.412988 0.515518 26.456871 -7.125000 0.000000 0.000000 43.871689 20.323386 -5.729773 -109.661560 51.272970 -83.765572 0.541938 2.567860 -1.217381 7.125000 0.000000 0.000000 
6.318663 17.570645 6.465979 -167.511207 -13.034064 -178.835898 5.890068 -27.482136 -23.975571 5.561979 16.075855 47.421814 3.217644 -2.362342 9.692969 3.416100 -11.340000 -33.435300 45.078979 -2.490884 -7.800343 -1.770769 -7.862915 24.601103 -2.384818 12.389173 -0.815738 -0.058900 1.565600 -4.306600 2.400847 0.878436 -5.490629 3.042895 0.436127 -13.302659 10.833518 -2.863788 5.856107 5.009900 -1.427200 2.937500 -64.302273 12.147646 27.204602 127.294836 -46.453240 -95.725823 1.356185 0.513833 26.634822 -7.125000 0.000000 0.000000 43.031976 19.118767 -7.400074 -108.475895 51.716473 -82.907912 0.530420 2.646360 -0.598771 7.125000 0.000000 0.000000 
6.031994 17.563566 6.400063 -167.310315 -10.103020 -178.707789 7.336174 -32.386882 -21.409265 4.674954 15.141292 44.197049 4.397087 -5.555944 10.732540 3.529200 -11.506000 -34.006100 44.332610 -2.770422 -7.011211 -1.858960 -7.694909 24.348388 -2.530110 14.576905 0.179813 -0.056600 1.535600 -4.223900 2.448029 1.327147 -5.388900 3.203388 0.658416 -13.249543 10.743219 -3.438102 5.749577 4.974800 -1.729900 2.896700 -64.290437 11.870511 25.140155 125.894686 -47.148154 -94.734228 1.306586 0.527710 26.829122 -7.125000 0.000000 0.000000 42.483114 17.956905 -8.497391 -107.119331 52.113908 -81.785380 0.459051 2.752307 0.026488 7.125000 0.000000 0.000000 
5.720330 17.546424 6.336801 -167.607291 -7.145838 -178.744149 7.207067 -35.590307 -18.892723 4.163888 14.451137 42.315258 5.644712 -9.466990 11.327882 3.919600 -12.052600 -35.918400 42.882143 -2.503624 -6.309023 -2.035495 -7.735157 24.736402 -2.646774 16.379301 0.602406 -0.107500 2.113700 -5.820000 2.466953 1.681695 -5.317075 3.482843 0.864885 -13.480234 10.728459 -3.976277 5.802243 5.028300 -2.024700 2.935500 -64.525652 11.590585 23.256914 123.941923 -48.016973 -93.241723 1.307476 0.537569 26.917430 -7.125000 0.000000 0.000000 42.466423 16.621537 -8.887283 -106.021614 52.401474 -80.796664 0.322240 2.856092 0.312493 7.125000 0.000000 0.000000 
5.408113 17.532378 6.271770 -168.283379 -3.851400 -178.589431 5.783866 -36.592570 -16.555873 4.012033 14.089697 41.806191 6.546707 -12.877114 11.658552 5.195000 -13.600100 -41.658700 41.134463 -0.720205 -5.896323 -2.290872 -8.080694 25.956438 -2.746387 17.335221 0.386157 -0.176200 2.703500 -7.454500 2.409416 2.078000 -5.181901 3.705106 1.112992 -13.326226 10.799829 -4.488267 5.855696 5.123400 -2.305400 2.960600 -64.898349 11.264893 21.409706 122.014865 -48.816992 -91.741797 1.317709 0.551549 27.281655 -7.125000 0.000000 0.000000 42.974185 15.482905 -9.227936 -105.034316 52.637230 -79.856158 0.154683 2.941469 0.248622 7.125000 0.000000 0.000000 
5.086827 17.498645 6.214812 -168.791267 -0.485829 -178.196400 4.054040 -35.914342 -14.752845 4.102937 13.996980 42.053057 6.922743 -14.358836 10.846743 5.708800 -14.140100 -43.801600 39.683013 2.146599 -6.010801 -2.581254 -8.645289 27.706005 -2.824428 17.536891 -0.093261 -0.199900 2.878900 -7.941800 2.377187 2.541617 -5.157972 4.004418 1.381426 -13.563413 10.908848 -5.121962 6.132133 5.258800 -2.659300 3.130400 -65.928172 11.229030 19.338044 119.865979 -49.599897 -90.047005 1.299516 0.474385 27.603785 -7.125000 0.000000 0.000000 43.777524 13.999906 -9.417762 -104.390941 52.835114 -79.197648 0.021253 3.000468 -0.954555 7.125000 0.000000 0.000000 
